<svg width="128" height="128" viewBox="0 0 128 128" fill="none" xmlns="http://www.w3.org/2000/svg">
<path d="M21.3334 106.667C18.4001 106.667 15.8899 105.623 13.8027 103.536C11.7121 101.445 10.6667 98.9333 10.6667 95.9999V31.9999C10.6667 29.0666 11.7121 26.5564 13.8027 24.4693C15.8899 22.3786 18.4001 21.3333 21.3334 21.3333H106.667C109.6 21.3333 112.112 22.3786 114.203 24.4693C116.29 26.5564 117.333 29.0666 117.333 31.9999V95.9999C117.333 98.9333 116.29 101.445 114.203 103.536C112.112 105.623 109.6 106.667 106.667 106.667H21.3334ZM64.0001 68.3999C64.4445 68.3999 64.9103 68.3324 65.3974 68.1973C65.8881 68.0657 66.3556 67.8666 66.8001 67.5999L104.533 43.9999C105.245 43.5555 105.778 43.0008 106.133 42.3359C106.489 41.6675 106.667 40.9333 106.667 40.1333C106.667 38.3555 105.911 37.0221 104.4 36.1333C102.889 35.2444 101.333 35.2888 99.7334 36.2666L64.0001 58.6666L28.2668 36.2666C26.6667 35.2888 25.1112 35.2657 23.6001 36.1973C22.089 37.1324 21.3334 38.4444 21.3334 40.1333C21.3334 41.0221 21.5112 41.799 21.8667 42.4639C22.2223 43.1324 22.7556 43.6444 23.4667 43.9999L61.2001 67.5999C61.6445 67.8666 62.1121 68.0657 62.6027 68.1973C63.0899 68.3324 63.5556 68.3999 64.0001 68.3999Z" fill="white"/>
</svg>
