<svg width="189" height="700" viewBox="0 0 189 700" fill="none" xmlns="http://www.w3.org/2000/svg">
<path fill-rule="evenodd" clip-rule="evenodd" d="M171.457 525.498V573.831H21.1216L171.457 525.498Z" fill="#EE162D"/>
<path fill-rule="evenodd" clip-rule="evenodd" d="M171.457 427.028V484.718L53.7455 522.56V464.871L171.457 427.028ZM42.5529 526.157L17.5425 534.191V476.501L42.5529 468.461V526.157Z" fill="#1354A4"/>
<path fill-rule="evenodd" clip-rule="evenodd" d="M171.457 334.313V386.242L53.7455 424.084V372.155L171.457 334.313ZM42.5529 427.681L17.5425 435.721V383.791L42.5529 375.751V427.681Z" fill="#EE162D"/>
<path fill-rule="evenodd" clip-rule="evenodd" d="M171.457 241.603V293.532L53.7455 331.368V279.445L171.457 241.603ZM42.5529 334.965L17.5425 343.005V291.082L42.5529 283.042V334.965Z" fill="#1354A4"/>
<path fill-rule="evenodd" clip-rule="evenodd" d="M17.5425 200.853H171.36L53.7455 238.659V214.727H42.5529V242.255L17.5425 250.296V200.853Z" fill="#EE162D"/>
<path fill-rule="evenodd" clip-rule="evenodd" d="M94.5001 -9.15527e-05C122.925 -9.15527e-05 145.967 23.1209 145.967 51.6305C145.967 70.7832 135.576 87.4915 120.136 96.4095C109.855 122.566 142.072 124.779 146.933 143.791H171.871C181.295 143.791 189 151.527 189 160.975V160.981C189 170.43 181.295 178.165 171.871 178.165H17.1294C7.71096 178.165 0 170.43 0 160.981V160.975C0 151.527 7.71096 143.791 17.1294 143.791H43.3246C68.4323 143.858 80.9861 143.895 80.9861 143.895C64.8716 142.901 52.7856 141.56 44.7222 139.884C52.7005 122.517 79.2483 120.786 70.6988 97.4153C54.2561 88.796 43.0331 71.5269 43.0331 51.6305C43.0331 23.1209 66.0747 -9.15527e-05 94.5001 -9.15527e-05ZM60.1502 50.3686C60.1502 27.2232 77.7535 8.19853 100.26 6.02846C98.8507 5.89435 97.4167 5.82738 95.9705 5.82738C71.4462 5.82738 51.5643 25.7725 51.5643 50.3686C51.5643 74.9709 71.4462 94.9161 95.9705 94.9161C97.4167 94.9161 98.8507 94.849 100.26 94.7088C77.7535 92.5448 60.1502 73.5201 60.1502 50.3686Z" fill="#1E1D1B"/>
<path fill-rule="evenodd" clip-rule="evenodd" d="M166.505 633.289C155.519 656.714 133.863 673.234 108.688 677.757V685.767C108.688 693.6 102.308 700 94.5001 700C86.698 700 80.3117 693.6 80.3117 685.767V677.696C57.7075 673.539 38.02 659.714 26.3534 639.976C45.5001 636.714 63.6138 634.112 80.7006 632.167C80.7006 632.167 61.408 632.545 22.8168 633.289H17.1294C7.71096 633.289 0 625.559 0 616.105C0 606.65 7.71096 598.915 17.1294 598.915H171.871C181.295 598.915 189 606.65 189 616.105C189 625.559 181.295 633.289 171.871 633.289H166.505Z" fill="#1A1A1A"/>
<path fill-rule="evenodd" clip-rule="evenodd" d="M28.2005 189.412H160.799C166.663 189.412 171.457 194.227 171.457 200.104V574.575C171.457 580.451 166.663 585.267 160.799 585.267H28.2005C22.3429 585.267 17.5425 580.451 17.5425 574.575V200.104C17.5425 194.227 22.3429 189.412 28.2005 189.412ZM42.5529 214.727H146.447C157.056 214.727 165.733 223.432 165.733 234.075V540.609C165.733 551.246 157.056 559.951 146.447 559.951H42.5529C31.9496 559.951 23.2724 551.246 23.2724 540.609V234.075C23.2724 223.432 31.9496 214.727 42.5529 214.727Z" fill="#1A1A1A"/>
</svg>
