<svg width="200" height="89" viewBox="0 0 200 89" fill="none" xmlns="http://www.w3.org/2000/svg">
<g clip-path="url(#clip0_18_58)">
<path d="M32.1283 54.652C26.655 66.0727 21.2795 77.2887 15.9041 88.5049C15.8038 88.4657 15.7034 88.4264 15.6031 88.3873C15.6871 88.1093 15.7651 87.8294 15.8558 87.5536C20.0985 74.6494 24.3367 61.7437 28.6003 48.8462C28.8394 48.1227 28.7966 47.5672 28.4073 46.8983C24.802 40.7029 21.2348 34.4856 17.6557 28.2751C17.5738 28.1331 17.074 27.5467 16.0734 27.9103C15.638 28.0455 15.2083 28.1819 14.7826 28.33C11.8807 29.3404 7.73295 27.7527 6.02247 25.0368C4.60511 22.7863 4.23642 20.4286 4.97949 17.8557C5.51267 16.0095 4.89071 14.2664 3.59476 12.7154C3.33286 12.4543 3.04234 12.2183 2.72597 12.013C2.54486 11.8954 2.35544 11.7882 2.15786 11.692C1.88658 11.5598 1.44172 11.4103 1.02887 11.2442C0.588479 11.0671 0.189632 10.8483 0.0525281 10.6195C-0.0397977 10.3591 -0.0234868 10.1399 0.207482 9.98876C0.607714 9.72671 1.10689 9.77825 1.25476 9.77333C3.35179 9.87427 5.90106 12.7545 6.70198 13.6182C6.92372 13.8574 6.94572 14.0568 7.30595 13.9004C7.66617 13.744 7.54215 13.7995 7.59908 13.7744C7.81205 13.6806 9.88214 12.6945 11.0404 12.3931C15.3949 11.2598 19.685 13.9811 20.8029 18.3415C21.3684 20.5471 20.9602 22.5303 20.0161 24.5031C19.8906 24.7656 19.8521 25.203 19.9863 25.4376C23.9232 32.3202 27.8869 39.1874 31.8501 46.0547C31.868 46.0858 31.9026 46.1461 31.9417 46.1989C31.9977 46.2748 32.063 46.3348 32.1011 46.2689C32.107 46.2588 32.1445 46.1938 32.2094 46.0814C32.8626 44.9507 36.2875 39.0223 38.1052 35.878C42.3277 28.5741 46.5653 21.2788 50.7543 13.9558C51.2216 13.1388 51.6683 13.0186 52.3977 13.4828C52.8786 13.7889 53.6226 13.9823 53.8011 14.4119C54.1941 15.3584 52.5741 14.8559 55.5957 16.3771C56.5911 16.9674 58.1017 17.663 58.6734 18.0042C59.245 18.3453 61.7437 19.785 61.8805 19.8642C62.0173 19.9433 62.7587 20.4887 62.4057 21.1325C62.027 21.8231 61.5472 21.6981 60.9755 21.3658C58.6726 20.0264 56.356 18.7108 54.0436 17.3881C53.7437 17.2165 53.4381 17.0551 53.0612 16.8486C52.7605 17.366 52.4802 17.8483 52.147 18.4218C53.3242 19.1027 54.4635 19.7648 55.606 20.4217C57.0358 21.2437 58.4603 22.0756 59.9035 22.8733C60.4604 23.181 60.8929 23.4794 60.4941 24.1915C60.1048 24.8868 59.6225 24.7336 59.0596 24.4073C56.5094 22.9284 53.9477 21.4695 51.3013 19.9526C50.9985 20.455 50.7161 20.9232 50.3932 21.459C53.0723 22.9947 55.6708 24.5062 58.2941 25.9733C58.9925 26.3638 59.1127 26.7868 58.6574 27.4136C58.2705 27.9463 57.8523 27.7396 57.4119 27.486C55.1032 26.1568 52.7901 24.835 50.4783 23.5114C50.2034 23.3541 49.926 23.2015 49.5518 22.9918C49.2603 23.4686 48.9769 23.9327 48.6428 24.4794C50.2982 25.433 51.8827 26.348 53.4695 27.2591C54.5421 27.875 55.6089 28.5018 56.6961 29.0913C57.2248 29.3781 57.3578 29.7465 57.078 30.258C56.7875 30.7893 56.4086 30.9453 55.8273 30.6083C53.1936 29.0814 50.545 27.5802 47.8019 26.0125C47.49 26.524 47.1864 27.0218 46.8395 27.5904C49.2232 28.9588 51.5523 30.296 53.8815 31.6327C54.1841 31.8063 54.4798 31.9949 54.7937 32.1452C55.3411 32.4071 55.4491 32.8032 55.1706 33.311C54.878 33.8444 54.495 33.9902 53.9171 33.6539C51.6146 32.3137 49.2963 31.001 46.983 29.6797C46.6826 29.5081 46.3768 29.3459 45.9788 29.1274C45.6625 29.6612 45.3659 30.1622 45.0212 30.7439C45.4794 31.0187 45.8743 31.2642 46.2771 31.4956C48.4771 32.7598 50.6714 34.0341 52.8852 35.2734C53.4628 35.5967 53.8303 35.9124 53.4259 36.6034C53.0115 37.3112 52.5234 37.0834 51.9816 36.7705C49.4045 35.2814 46.8188 33.807 44.1453 32.2753C43.806 32.8591 43.4961 33.3926 43.1365 34.0116C44.1176 34.5794 45.0396 35.1171 45.9657 35.6481C47.6989 36.6421 49.4277 37.6442 51.1728 38.6168C51.6986 38.91 51.8321 39.2737 51.5526 39.7843C51.2615 40.3161 50.8817 40.469 50.3011 40.1325C47.6675 38.6057 45.019 37.1045 42.2888 35.5444C42.1152 35.8201 41.944 36.0739 41.791 36.3381C39.7409 39.8788 37.7051 43.4281 35.6326 46.9555C35.311 47.5027 35.2897 47.9611 35.4972 48.5466C40.0202 61.3213 44.5259 74.1019 49.0341 86.8818C49.2091 87.3779 49.3773 87.8765 49.5485 88.3738C49.4494 88.4172 49.3503 88.4606 49.2514 88.5041C43.5737 77.2785 37.8959 66.0542 32.1283 54.652ZM18.0736 20.3965C18.0856 17.5332 15.7622 15.1613 12.914 15.1293C10.0088 15.0965 7.61216 17.4456 7.59893 20.3388C7.5857 23.24 9.95124 25.6089 12.8563 25.6038C15.7141 25.5987 18.0616 23.2557 18.0736 20.3965ZM32.0491 50.567C32.7692 50.4935 33.2243 50.1262 33.3012 49.3959C33.3726 48.7188 32.788 48.107 32.1037 48.0918C31.4217 48.0765 30.8085 48.664 30.8501 49.3437C30.895 50.0775 31.3396 50.4596 32.0491 50.567Z" fill="#DFAE5F"/>
<path d="M85.2095 14.375L98.495 39.3426L104.038 29.0807L106.695 46.4893H108.345L104.909 23.9497L98.495 35.8151L87.0878 14.375H85.2095ZM99.8236 26.6985L97.6704 30.6841L98.6325 32.425L101.656 26.6985L105.688 19.1853L105.825 18.8646L107.337 16.07H108.436L108.574 17.1695L112.01 39.5259L112.788 44.7943H111.277L107.795 22.1173L107.383 19.3685L106.1 21.7966L109.765 45.8021H109.719L109.856 46.4893H114.713L109.856 14.375H106.329L99.8236 26.6985ZM97.029 39.7549L83.881 14.9706L83.6061 14.5124L78.75 46.4893H86.7671L88.2331 37.0062L87.2711 35.2195L86.9046 34.5323L85.347 44.7943H80.6741L84.5223 19.6892L98.5409 46.077L103.534 36.5939L103.168 34.1658L103.122 33.8452L98.5409 42.5495L97.029 39.7549ZM86.1716 29.5846L95.1508 46.4893H97.029L85.3011 24.4537L82.3233 43.6032H83.9726L86.1716 29.5846ZM127.036 46.5809C125.341 46.5809 124.012 45.2066 124.012 43.5573C124.012 41.9539 125.341 40.6254 127.036 40.6254C128.685 40.6254 129.968 41.9539 129.968 43.5573C129.968 45.2066 128.685 46.5809 127.036 46.5809ZM127.036 41.9539C126.12 41.9539 125.433 42.6869 125.433 43.5573C125.433 44.5194 126.12 45.2066 127.036 45.2066C127.952 45.2066 128.685 44.4736 128.685 43.5573C128.685 42.6869 127.906 41.9539 127.036 41.9539ZM126.257 43.5573C126.257 43.1908 126.624 42.7785 127.036 42.7785C127.448 42.7785 127.815 43.1908 127.815 43.5573C127.815 43.9697 127.448 44.382 127.036 44.382C126.624 44.382 126.257 44.0613 126.257 43.5573ZM153.561 14.4208H161.533V25.0034H159.838V16.1159H155.21V44.7943H159.838V35.9525H161.533V46.4893H153.561V14.4208ZM156.722 17.4444H158.372V26.4236H172.344V14.4208H173.948V28.027H156.722V17.4444ZM178.85 16.1159H177.292V28.1645H175.643V14.4208H180.453V46.4893H178.85V16.1159ZM172.344 34.4865H158.372V43.6948H156.676V32.7915H173.948V44.7943H175.643V31.2797H156.676V29.6763H177.292V46.4893H172.344V34.4865ZM193.006 46.5809C191.31 46.5809 189.982 45.2066 189.982 43.5573C189.982 41.9539 191.31 40.6254 193.006 40.6254C194.655 40.6254 195.937 41.9539 195.937 43.5573C195.937 45.2066 194.655 46.5809 193.006 46.5809ZM193.006 41.9539C192.089 41.9539 191.402 42.6869 191.402 43.5573C191.402 44.5194 192.089 45.2066 193.006 45.2066C193.922 45.2066 194.655 44.4736 194.655 43.5573C194.655 42.6869 193.876 41.9539 193.006 41.9539ZM192.227 43.5573C192.227 43.1908 192.593 42.7785 193.006 42.7785C193.418 42.7785 193.784 43.1908 193.784 43.5573C193.784 43.9697 193.418 44.382 193.006 44.382C192.593 44.382 192.227 44.0613 192.227 43.5573Z" fill="#D9D9D9"/>
<path d="M75.0177 61.0263C75.0177 61.9813 74.9779 72.2473 75.0177 73.1624C75.0376 73.3813 75.0376 73.6001 75.0376 73.819C75.0376 73.9782 75.1371 74.0776 75.2763 74.1373C75.3957 74.1771 75.5549 74.2169 75.6742 74.2169C76.2512 74.1572 76.8679 74.2169 77.4648 74.197C78.4994 74.2766 79.4344 74.0378 80.3297 73.5604C81.1653 73.0829 81.6229 72.2274 81.9413 71.3321C82.1999 70.5761 82.1601 69.6808 82.0208 68.9049C81.9015 68.2085 81.5831 67.5321 81.1653 66.975C81.1056 66.8954 80.2502 66.3583 80.2899 66.3185C80.8072 65.5823 81.5433 64.9656 81.6428 64.0504C81.7224 63.2546 81.5433 62.4389 81.2648 61.7028C81.0858 61.2253 80.847 60.7677 80.469 60.4096C79.8323 59.8127 78.8774 59.5541 78.0418 59.4745C77.1863 59.3949 76.3905 59.4546 75.535 59.4148C75.2365 59.4148 75.0973 59.5342 75.0973 59.8525C75.0973 60.2703 75.0177 60.6085 75.0177 61.0263ZM77.4648 64.6473C77.4449 64.4284 77.4648 62.6776 77.425 62.0211C77.4051 61.7823 77.5444 61.663 77.803 61.7226C78.002 61.7624 78.1611 61.7823 78.3203 61.9017C78.8177 62.2797 79.1957 62.7373 79.2156 63.374C79.2156 63.6923 79.2156 64.0106 79.0962 64.309C78.957 64.6672 78.758 64.9457 78.3999 65.1247C78.1611 65.2441 77.9423 65.3834 77.7036 65.4829C77.5842 65.5226 77.4648 65.463 77.4449 65.3436C77.4449 65.1048 77.4648 64.6473 77.4648 64.6473ZM79.4543 69.9195C79.4543 70.019 79.4344 70.198 79.4344 70.3771C79.4145 70.974 78.6386 71.73 77.7433 71.7499C77.6837 71.7499 77.5842 71.6902 77.5643 71.6305C77.5245 71.5111 77.4847 71.3719 77.4847 71.2326C77.4648 70.6158 77.4847 70.019 77.4847 69.3624C77.5444 68.9446 77.5046 68.5069 77.5046 68.0692C77.5245 67.731 77.6041 67.6713 77.9224 67.6117C78.3999 67.552 78.8376 67.7509 79.0564 68.1289C79.3151 68.5865 79.4145 69.0839 79.4543 69.6012V69.9195ZM88.1745 74.2567C88.2341 74.2766 88.4132 74.2766 88.5923 74.2766C88.9902 74.2766 89.1095 72.8441 89.1493 72.5457C89.1692 72.3069 89.2289 72.2871 89.4279 72.2473C90.4226 72.1279 90.92 72.2075 91.9148 72.2274C92.1336 72.2274 92.253 72.3268 92.3127 72.5059L92.4519 72.9635C92.5713 73.3017 92.6708 73.7195 92.7902 74.0577C92.8697 74.2965 92.8896 74.2766 93.1284 74.2766C93.4467 74.2766 94.6006 74.2766 94.9389 74.2567C95.3964 74.2567 95.0781 73.3216 95.0184 73.1624C94.8394 72.6054 94.7996 72.0284 94.6205 71.4713C94.5409 71.2326 92.2729 60.4692 92.1734 59.8724C92.0341 59.5143 92.1535 59.4944 91.8352 59.4944C91.1587 59.4944 90.4425 59.5342 89.7462 59.4944C89.4676 59.4944 89.4875 59.574 89.4478 59.8724C89.408 60.1509 88.6917 63.3143 88.4132 64.6274C88.0551 66.2787 87.7368 67.8703 87.3388 69.5017C87.1996 70.0787 86.2446 74.2368 86.364 74.2567C86.4237 74.2965 86.5231 74.2766 86.6027 74.2766C87.1001 74.2766 87.5577 74.2766 88.1745 74.2567ZM90.7807 69.7405H90.3629C89.8059 69.7405 89.786 69.7405 89.9252 69.1635C90.0247 68.7258 90.5619 66.3583 90.6813 65.7813C90.7012 65.7415 90.7409 65.7017 90.7608 65.7017C90.8006 65.7017 90.8404 65.7415 90.8603 65.7614C90.9399 66.0001 91.0195 66.597 91.0991 66.8357C91.2781 67.5918 91.3975 68.2284 91.5765 69.0441C91.7556 69.7604 91.676 69.7603 91.3179 69.7603C91.1389 69.7603 90.9598 69.7405 90.7807 69.7405ZM101.848 72.9237C101.848 72.4064 101.848 69.1436 101.868 68.885C101.888 68.8253 101.928 68.7059 102.008 68.7059C102.087 68.7059 102.127 68.7457 102.147 68.8054C102.943 70.3572 103.639 71.909 104.355 73.4211C104.455 73.6399 104.674 74.2766 104.733 74.3363C104.813 74.4556 104.952 74.4159 105.072 74.4159L107.26 74.4357C107.519 74.4357 107.578 74.2766 107.519 74.0577C107.359 73.4609 106.225 71.352 105.967 70.8347C105.788 70.4368 104.594 68.1289 104.554 67.9499C104.514 67.8703 104.813 67.731 104.853 67.6713C105.808 66.8158 106.663 65.9405 106.842 64.6075C107.041 63.2944 106.743 61.8619 105.887 60.8075C105.231 60.0315 104.375 59.574 103.361 59.5143C102.744 59.4745 102.147 59.5342 101.53 59.5143C100.993 59.4944 100.615 59.4944 99.9385 59.4944C99.6202 59.4944 99.4213 59.6734 99.4014 60.0116V60.2504C99.3616 61.7823 99.4014 63.3143 99.4213 64.8263C99.4213 67.1342 99.3815 73.2221 99.3815 74.0975C99.3815 74.3562 99.4213 74.4159 99.66 74.4159C99.7993 74.4159 99.9584 74.4357 100.098 74.4357C100.655 74.4357 100.993 74.4159 101.57 74.4159C102.008 74.4159 101.848 73.6996 101.848 72.9237ZM101.848 65.1645L101.868 63.1551C101.888 62.8567 101.789 62.2598 102.067 62.041C102.445 61.7624 103.221 62.041 103.559 62.2797C104.554 62.9562 104.475 64.6274 103.938 65.5624C103.679 66.0001 103.241 66.2588 102.744 66.398C102.445 66.4776 101.888 66.5771 101.868 66.0996C101.868 65.7813 101.848 65.1645 101.848 65.1645ZM111.762 61.0263C111.762 61.9813 111.723 72.2473 111.762 73.1624C111.782 73.3813 111.782 73.6001 111.782 73.819C111.782 73.9782 111.882 74.0776 112.021 74.1373C112.14 74.1771 112.299 74.2169 112.419 74.2169C112.996 74.1572 113.613 74.2169 114.209 74.197C115.244 74.2766 116.179 74.0378 117.074 73.5604C117.91 73.0829 118.368 72.2274 118.686 71.3321C118.945 70.5761 118.905 69.6808 118.765 68.9049C118.646 68.2085 118.328 67.5321 117.91 66.975C117.85 66.8954 116.995 66.3583 117.035 66.3185C117.552 65.5823 118.288 64.9656 118.387 64.0504C118.467 63.2546 118.288 62.4389 118.009 61.7028C117.83 61.2253 117.592 60.7677 117.214 60.4096C116.577 59.8127 115.622 59.5541 114.786 59.4745C113.931 59.3949 113.135 59.4546 112.28 59.4148C111.981 59.4148 111.842 59.5342 111.842 59.8525C111.842 60.2703 111.762 60.6085 111.762 61.0263ZM114.209 64.6473C114.19 64.4284 114.209 62.6776 114.17 62.0211C114.15 61.7823 114.289 61.663 114.548 61.7226C114.747 61.7624 114.906 61.7823 115.065 61.9017C115.562 62.2797 115.94 62.7373 115.96 63.374C115.96 63.6923 115.96 64.0106 115.841 64.309C115.702 64.6672 115.503 64.9457 115.145 65.1247C114.906 65.2441 114.687 65.3834 114.448 65.4829C114.329 65.5226 114.209 65.463 114.19 65.3436C114.19 65.1048 114.209 64.6473 114.209 64.6473ZM116.199 69.9195C116.199 70.019 116.179 70.198 116.179 70.3771C116.159 70.974 115.383 71.73 114.488 71.7499C114.428 71.7499 114.329 71.6902 114.309 71.6305C114.269 71.5111 114.229 71.3719 114.229 71.2326C114.209 70.6158 114.229 70.019 114.229 69.3624C114.289 68.9446 114.249 68.5069 114.249 68.0692C114.269 67.731 114.349 67.6713 114.667 67.6117C115.145 67.552 115.582 67.7509 115.801 68.1289C116.06 68.5865 116.159 69.0839 116.199 69.6012V69.9195ZM123.109 70.3373H123.089C123.089 70.8347 123.069 71.352 123.089 71.8693C123.109 72.5059 123.148 73.1426 123.188 73.7792C123.188 73.998 123.248 74.0577 123.447 74.0975C123.865 74.197 124.263 74.2169 124.68 74.2169C125.755 74.1771 126.829 74.2567 127.903 74.2169C128.341 74.197 128.54 74.2368 128.978 74.1572C129.376 74.0776 129.515 73.8588 129.515 73.2619C129.475 72.8839 129.495 72.7248 129.495 72.2672C129.495 71.6106 129.037 71.3918 128.64 71.4117C128.361 71.4316 127.028 71.3918 126.491 71.3918C125.596 71.4117 125.735 71.531 125.735 70.596C125.735 69.8399 125.755 68.8651 125.755 68.0891C125.755 67.6713 125.794 67.5321 126.192 67.5321H128.679C129.077 67.5918 129.356 67.3132 129.356 66.8954C129.356 66.4776 129.396 66.4577 129.396 66.0399L129.336 65.4431C129.296 65.1048 129.177 64.9855 128.838 64.9855C128.62 64.9855 128.401 65.0054 128.182 65.0253C127.326 65.085 126.929 64.9656 126.093 65.0253C125.814 65.0253 125.775 64.9855 125.755 64.7268C125.675 63.9509 125.755 63.0954 125.834 62.3195C125.854 62.0012 125.934 61.9415 126.232 61.9216L129.037 61.9017C129.415 61.8619 129.535 61.8818 129.515 61.5038C129.475 60.9268 129.535 60.33 129.475 59.753C129.435 59.4347 129.336 59.375 128.978 59.375C128.381 59.3949 128.242 59.3949 127.645 59.4347C127.048 59.4546 124.66 59.4546 124.083 59.4546C123.248 59.4546 123.188 59.3949 123.168 60.4096C123.129 61.2054 123.148 62.0211 123.148 62.8368C123.148 64.2295 123.069 69.2232 123.109 70.3373ZM136.186 72.9237C136.186 72.4064 136.186 69.1436 136.206 68.885C136.226 68.8253 136.265 68.7059 136.345 68.7059C136.425 68.7059 136.464 68.7457 136.484 68.8054C137.28 70.3572 137.976 71.909 138.693 73.4211C138.792 73.6399 139.011 74.2766 139.071 74.3363C139.15 74.4556 139.289 74.4159 139.409 74.4159L141.597 74.4357C141.856 74.4357 141.916 74.2766 141.856 74.0577C141.697 73.4609 140.563 71.352 140.304 70.8347C140.125 70.4368 138.931 68.1289 138.892 67.9499C138.852 67.8703 139.15 67.731 139.19 67.6713C140.145 66.8158 141 65.9405 141.18 64.6075C141.378 63.2944 141.08 61.8619 140.225 60.8075C139.568 60.0315 138.713 59.574 137.698 59.5143C137.081 59.4745 136.484 59.5342 135.867 59.5143C135.33 59.4944 134.952 59.4944 134.276 59.4944C133.958 59.4944 133.759 59.6734 133.739 60.0116V60.2504C133.699 61.7823 133.739 63.3143 133.759 64.8263C133.759 67.1342 133.719 73.2221 133.719 74.0975C133.719 74.3562 133.759 74.4159 133.997 74.4159C134.137 74.4159 134.296 74.4357 134.435 74.4357C134.992 74.4357 135.33 74.4159 135.907 74.4159C136.345 74.4159 136.186 73.6996 136.186 72.9237ZM136.186 65.1645L136.206 63.1551C136.226 62.8567 136.126 62.2598 136.405 62.041C136.783 61.7624 137.559 62.041 137.897 62.2797C138.892 62.9562 138.812 64.6274 138.275 65.5624C138.016 66.0001 137.578 66.2588 137.081 66.398C136.783 66.4776 136.226 66.5771 136.206 66.0996C136.206 65.7813 136.186 65.1645 136.186 65.1645ZM157.327 59.3949C156.949 59.4148 156.571 59.4745 156.193 59.5938C155.377 59.8724 154.641 60.4295 154.143 61.1457C153.706 61.8022 153.527 62.5781 153.467 63.3541C153.427 63.9509 153.487 64.5677 153.765 65.1048C154.064 65.6818 154.581 66.1792 155.019 66.6567C155.417 67.0745 155.815 67.4923 156.252 67.8703C156.65 68.2483 157.108 68.5467 157.506 68.9446C158.083 69.5216 158.301 70.8347 157.884 71.5509C157.386 72.3467 156.212 72.4661 155.437 72.2075C155.039 72.0682 154.68 71.7698 154.342 71.531C154.143 71.3918 153.905 71.3321 153.765 71.5708C153.686 71.6902 153.646 71.8295 153.606 71.9488C153.467 72.4462 153.288 72.9038 153.268 73.441C153.248 74.0577 154.422 74.2368 154.86 74.3363C156.809 74.7939 159.157 74.4357 160.172 72.5059C160.371 72.108 160.51 71.6902 160.589 71.2525C160.609 71.0933 160.629 70.9541 160.629 70.7949C160.709 69.5216 160.191 68.4473 159.416 67.4923C158.58 66.4577 157.526 65.7415 156.551 64.8462C155.954 64.2891 155.735 63.4137 155.914 62.6179C156.093 61.7624 157.068 61.5436 157.804 61.7624C158.023 61.8221 158.202 61.9216 158.401 62.041C158.52 62.1007 158.64 62.1802 158.799 62.1802C159.077 62.2001 159.117 61.9813 159.177 61.7624C159.316 61.2651 159.555 60.8671 159.654 60.3897C159.754 59.8525 159.316 59.753 158.878 59.6137C158.361 59.4745 157.864 59.375 157.327 59.3949ZM170.802 68.5268C170.802 69.4221 170.782 71.1928 170.762 71.1928V73.8986C170.762 74.0179 170.742 74.2169 170.802 74.3363C170.861 74.4755 171.04 74.4357 171.16 74.4159C171.737 74.3562 172.314 74.4357 172.891 74.4159C173.527 74.396 173.328 73.4211 173.308 73.0232C173.229 72.1478 173.328 65.4829 173.328 63.0954C173.328 62.0211 173.289 59.8127 173.229 59.7132C173.129 59.5342 172.871 59.4944 172.672 59.4745C172.234 59.3949 172.015 59.5143 171.359 59.5143C170.702 59.5143 170.662 59.7132 170.662 60.4096V61.0064C170.642 61.4839 170.722 64.8263 170.722 65.3635C170.722 65.6221 170.702 65.642 170.444 65.642C169.787 65.6221 168.872 65.7017 168.195 65.642C167.22 65.5624 167.439 65.642 167.38 64.7467V64.6274C167.38 63.3541 167.539 60.0514 167.479 59.8525C167.38 59.5541 167.26 59.4944 167.002 59.5143C166.405 59.5541 165.788 59.4546 165.191 59.4944C164.992 59.5143 164.933 59.574 164.873 59.7729C164.853 59.8724 164.833 59.9719 164.833 60.0713C164.833 60.6881 164.873 61.5237 164.893 62.1404L164.833 73.9384C164.833 74.4556 165.291 74.396 166.305 74.396C167.24 74.396 167.479 74.6148 167.479 73.5007C167.479 72.6054 167.419 71.4713 167.439 70.5761C167.459 69.8797 167.439 69.2033 167.439 68.5069C167.459 68.2483 167.519 68.1687 167.758 68.1687C168.633 68.1488 169.588 68.1687 170.463 68.1687C170.742 68.1687 170.802 68.2085 170.802 68.5268ZM188.037 63.1551C188.455 64.3886 188.554 65.7216 188.554 67.0347C188.554 68.1289 188.355 69.1834 188.077 70.2378C187.719 71.4912 187.122 72.6253 186.047 73.3614C185.252 73.9384 184.416 74.3164 183.441 74.4159C183.302 74.4159 183.183 74.4357 183.043 74.4357C182.924 74.4357 182.804 74.4159 182.665 74.4159C181.69 74.3164 180.855 73.9384 180.039 73.3614C178.985 72.6253 178.368 71.4912 178.03 70.2378C177.731 69.1834 177.552 68.1289 177.552 67.0347C177.552 65.7216 177.652 64.3886 178.069 63.1551C178.806 61.0263 180.835 59.5143 183.043 59.4745C185.252 59.5143 187.281 61.0263 188.037 63.1551ZM186.107 68.4871C186.306 67.2734 186.226 66.0399 185.988 64.8263C185.749 63.7321 185.272 62.6577 184.356 62.0012C184.197 61.8818 184.018 61.7823 183.839 61.7226C183.58 61.6033 183.302 61.5635 183.043 61.5635C182.785 61.5635 182.526 61.6033 182.267 61.7226C182.068 61.7823 181.909 61.8818 181.75 62.0012C180.815 62.6577 180.337 63.7321 180.119 64.8263C179.88 66.0399 179.8 67.2734 179.999 68.4871C180.198 69.5813 180.596 71.0535 181.631 71.6106C182.068 71.8494 182.546 72.0085 183.043 72.0284C183.541 72.0085 184.038 71.8494 184.476 71.6106C185.51 71.0535 185.908 69.5813 186.107 68.4871ZM192.778 62.1007C192.798 63.2745 192.798 73.242 192.798 74.0577C192.798 74.3562 192.838 74.4159 193.136 74.4159C193.813 74.4159 193.813 74.4357 194.489 74.4159C194.628 74.4159 194.867 74.4159 194.986 74.3562C195.126 74.2965 195.046 69.6012 195.046 69.3425C195.046 69.064 195.603 69.1237 195.762 69.1237C199.085 69.1237 200 66.7363 200 64.7069C200 62.8766 199.642 59.4944 195.504 59.4944C194.787 59.4944 194.051 59.5143 193.355 59.5143C193.196 59.5143 192.997 59.4944 192.858 59.5938C192.698 59.7132 192.758 61.4839 192.778 62.1007ZM195.066 66.1991C195.066 65.7614 195.046 63.1551 195.066 62.3593C195.066 62.2399 195.046 62.1007 195.066 61.9614C195.126 61.7425 195.384 61.7425 195.583 61.7624C196.737 61.842 197.394 62.8567 197.493 63.931C197.573 64.7069 197.473 65.8609 196.916 66.4776C196.518 66.8954 196.001 67.1541 195.325 67.1541C195.185 67.1541 195.046 66.9949 195.046 66.8556C195.046 66.6368 195.046 66.4179 195.066 66.1991Z" fill="#DFAE5F"/>
</g>
<defs>
<clipPath id="clip0_18_58">
<rect width="200" height="88.5049" fill="white"/>
</clipPath>
</defs>
</svg>
