<svg width="128" height="128" viewBox="0 0 128 128" fill="none" xmlns="http://www.w3.org/2000/svg">
<path d="M101.333 16C104.162 16 106.875 17.1238 108.876 19.1242C110.876 21.1246 112 23.8377 112 26.6667V101.333C112 104.162 110.876 106.875 108.876 108.876C106.875 110.876 104.162 112 101.333 112H26.6667C23.8377 112 21.1246 110.876 19.1242 108.876C17.1238 106.875 16 104.162 16 101.333V26.6667C16 23.8377 17.1238 21.1246 19.1242 19.1242C21.1246 17.1238 23.8377 16 26.6667 16H101.333ZM98.6667 98.6667V70.4C98.6667 65.7888 96.8349 61.3664 93.5742 58.1058C90.3136 54.8451 85.8912 53.0133 81.28 53.0133C76.7467 53.0133 71.4667 55.7867 68.9067 59.9467V54.0267H54.0267V98.6667H68.9067V72.3733C68.9067 68.2667 72.2133 64.9067 76.32 64.9067C78.3003 64.9067 80.1995 65.6933 81.5997 67.0936C83 68.4939 83.7867 70.3931 83.7867 72.3733V98.6667H98.6667ZM36.6933 45.6533C39.0697 45.6533 41.3487 44.7093 43.029 43.029C44.7093 41.3487 45.6533 39.0697 45.6533 36.6933C45.6533 31.7333 41.6533 27.68 36.6933 27.68C34.3029 27.68 32.0103 28.6296 30.3199 30.3199C28.6296 32.0103 27.68 34.3029 27.68 36.6933C27.68 41.6533 31.7333 45.6533 36.6933 45.6533ZM44.1067 98.6667V54.0267H29.3333V98.6667H44.1067Z" fill="white"/>
</svg>
