<svg width="128" height="128" viewBox="0 0 128 128" fill="none" xmlns="http://www.w3.org/2000/svg">
<g clip-path="url(#clip0_20_129)">
<path d="M64.0001 10.6667C93.4561 10.6667 117.333 34.5441 117.333 64.0001C117.333 93.4561 93.4561 117.333 64.0001 117.333C34.5441 117.333 10.6667 93.4561 10.6667 64.0001C10.6667 34.5441 34.5441 10.6667 64.0001 10.6667ZM64.0001 32.0001C62.5856 32.0001 61.229 32.562 60.2288 33.5622C59.2287 34.5624 58.6667 35.9189 58.6667 37.3334V64.0001C58.6671 65.4145 59.2292 66.7708 60.2294 67.7707L76.2294 83.7708C77.2353 84.7423 78.5825 85.2798 79.9809 85.2677C81.3793 85.2555 82.7169 84.6946 83.7058 83.7058C84.6946 82.7169 85.2555 81.3793 85.2677 79.9809C85.2798 78.5825 84.7423 77.2353 83.7708 76.2294L69.3334 61.7921V37.3334C69.3334 35.9189 68.7715 34.5624 67.7713 33.5622C66.7711 32.562 65.4146 32.0001 64.0001 32.0001Z" fill="white"/>
</g>
<defs>
<clipPath id="clip0_20_129">
<rect width="128" height="128" fill="white"/>
</clipPath>
</defs>
</svg>
