<svg width="128" height="128" viewBox="0 0 128 128" fill="none" xmlns="http://www.w3.org/2000/svg">
<path d="M64 8C52.3345 8.01323 41.1507 12.6532 32.9019 20.9019C24.6532 29.1507 20.0132 40.3345 20 52C20 89.65 60 118.085 61.705 119.275C62.3776 119.746 63.1788 119.999 64 119.999C64.8212 119.999 65.6224 119.746 66.295 119.275C68 118.085 108 89.65 108 52C107.987 40.3345 103.347 29.1507 95.0981 20.9019C86.8493 12.6532 75.6655 8.01323 64 8ZM64 36C67.1645 36 70.2579 36.9384 72.8891 38.6965C75.5203 40.4546 77.5711 42.9534 78.7821 45.8771C79.9931 48.8007 80.3099 52.0177 79.6926 55.1214C79.0752 58.2251 77.5513 61.0761 75.3137 63.3137C73.0761 65.5513 70.2251 67.0752 67.1214 67.6926C64.0177 68.3099 60.8007 67.9931 57.8771 66.7821C54.9534 65.5711 52.4546 63.5203 50.6965 60.8891C48.9384 58.2579 48 55.1645 48 52C48 47.7565 49.6857 43.6869 52.6863 40.6863C55.6869 37.6857 59.7565 36 64 36Z" fill="white"/>
</svg>
