<svg width="512" height="512" viewBox="0 0 512 512" fill="none" xmlns="http://www.w3.org/2000/svg">
<path d="M260.873 289.613C227.504 359.24 194.732 427.62 161.961 496C161.349 495.761 160.737 495.522 160.125 495.284C160.638 493.588 161.113 491.882 161.666 490.201C187.532 411.529 213.371 332.848 239.364 254.218C240.822 249.807 240.561 246.42 238.187 242.343C216.207 204.572 194.459 166.667 172.639 128.805C172.14 127.938 169.093 124.363 162.992 126.58C160.338 127.405 157.718 128.236 155.124 129.139C137.432 135.299 112.145 125.619 101.716 109.062C93.0754 95.3417 90.8277 80.9678 95.3578 65.2815C98.6084 54.0259 94.8166 43.3989 86.9157 33.9437C85.3191 32.3516 83.5479 30.9125 81.6192 29.6612C80.515 28.9443 79.3602 28.2905 78.1556 27.7042C76.5017 26.8983 73.7896 25.9865 71.2726 24.9743C68.5877 23.8945 66.1561 22.5605 65.3202 21.1655C64.7574 19.5782 64.8568 18.2414 66.2649 17.3202C68.705 15.7225 71.7482 16.0368 72.6498 16.0068C85.4344 16.6222 100.976 34.1819 105.859 39.4475C107.211 40.9054 107.345 42.1212 109.541 41.1681C111.737 40.214 110.981 40.5527 111.328 40.3997C112.627 39.8275 125.247 33.8161 132.308 31.9783C158.856 25.069 185.011 41.6597 191.827 68.2431C195.274 81.6902 192.785 93.7806 187.03 105.808C186.265 107.409 186.03 110.074 186.848 111.505C210.85 153.466 235.015 195.332 259.177 237.199C259.286 237.389 259.497 237.756 259.735 238.079C260.077 238.541 260.474 238.907 260.707 238.505C260.742 238.443 260.971 238.048 261.368 237.362C265.349 230.468 286.229 194.326 297.312 175.156C323.054 130.627 348.889 86.1509 374.427 41.5058C377.277 36.5244 380 35.7917 384.447 38.6221C387.378 40.488 391.914 41.6672 393.002 44.2863C395.398 50.0567 385.522 46.9928 403.944 56.2671C410.012 59.8657 419.222 64.107 422.707 66.1868C426.192 68.2666 441.425 77.0436 442.259 77.5267C443.094 78.009 447.613 81.3336 445.461 85.2587C443.153 89.469 440.227 88.7072 436.742 86.6809C422.702 78.5155 408.579 70.4946 394.481 62.4305C392.652 61.3846 390.79 60.4005 388.492 59.1415C386.659 62.2964 384.95 65.2365 382.918 68.7328C390.095 72.884 397.041 76.9207 404.007 80.9255C412.723 85.937 421.407 91.0084 430.206 95.8716C433.602 97.7479 436.239 99.5669 433.807 103.909C431.433 108.147 428.493 107.213 425.062 105.224C409.514 96.2075 393.897 87.3132 377.763 78.0652C375.916 81.1282 374.195 83.9829 372.226 87.2494C388.559 96.6119 404.401 105.827 420.395 114.771C424.653 117.152 425.385 119.731 422.609 123.552C420.251 126.799 417.702 125.539 415.017 123.993C400.941 115.891 386.839 107.832 372.745 99.7621C371.069 98.8033 369.378 97.8727 367.096 96.5941C365.32 99.5013 363.592 102.331 361.555 105.664C371.647 111.477 381.307 117.055 390.981 122.61C397.52 126.365 404.024 130.187 410.652 133.78C413.876 135.528 414.687 137.775 412.98 140.893C411.209 144.132 408.899 145.083 405.356 143.029C389.299 133.72 373.152 124.568 356.427 115.01C354.526 118.128 352.676 121.163 350.561 124.63C365.094 132.973 379.293 141.124 393.493 149.274C395.337 150.332 397.14 151.483 399.055 152.399C402.391 153.995 403.049 156.41 401.352 159.506C399.568 162.758 397.233 163.647 393.71 161.597C379.673 153.426 365.539 145.423 351.435 137.368C349.604 136.322 347.74 135.332 345.313 134C343.385 137.255 341.577 140.31 339.476 143.855C342.269 145.531 344.676 147.027 347.132 148.438C360.544 156.146 373.922 163.914 387.418 171.47C390.941 173.441 393.18 175.366 390.716 179.578C388.189 183.893 385.213 182.505 381.91 180.597C366.198 171.519 350.434 162.529 334.136 153.192C332.067 156.751 330.177 160.004 327.985 163.777C333.967 167.239 339.588 170.517 345.234 173.754C355.8 179.815 366.34 185.924 376.979 191.853C380.185 193.64 380.998 195.858 379.295 198.971C377.519 202.213 375.205 203.146 371.665 201.093C355.609 191.786 339.462 182.634 322.817 173.122C321.759 174.803 320.714 176.35 319.782 177.961C307.284 199.547 294.872 221.186 282.237 242.691C280.276 246.027 280.147 248.822 281.412 252.392C308.986 330.272 336.455 408.191 363.941 486.105C365.007 489.129 366.032 492.168 367.077 495.2C366.473 495.466 365.868 495.73 365.265 495.995C330.65 427.558 296.036 359.128 260.873 289.613ZM175.187 80.7717C175.26 63.3152 161.096 48.8551 143.731 48.6599C126.019 48.4601 111.408 62.7814 111.327 80.4199C111.247 98.1072 125.669 112.549 143.379 112.518C160.802 112.488 175.114 98.2029 175.187 80.7717ZM260.39 264.708C264.78 264.26 267.554 262.021 268.023 257.568C268.459 253.441 264.895 249.711 260.723 249.618C256.565 249.526 252.827 253.107 253.08 257.251C253.354 261.724 256.064 264.054 260.39 264.708Z" fill="#DFAE5F"/>
</svg>
