<?xml version="1.0" standalone="no"?>
<!DOCTYPE svg PUBLIC "-//W3C//DTD SVG 20010904//EN"
 "http://www.w3.org/TR/2001/REC-SVG-20010904/DTD/svg10.dtd">
<svg version="1.0" xmlns="http://www.w3.org/2000/svg"
 width="640.000000pt" height="640.000000pt" viewBox="0 0 640.000000 640.000000"
 preserveAspectRatio="xMidYMid meet">
<metadata>
Created by potrace 1.14, written by Peter Selinger 2001-2017
</metadata>
<g transform="translate(0.000000,640.000000) scale(0.100000,-0.100000)"
fill="#000000" stroke="none">
<path d="M710 6327 c-31 -15 -37 -48 -13 -69 10 -9 55 -32 100 -51 112 -48
176 -96 218 -167 23 -39 58 -105 55 -105 -1 0 3 -20 10 -45 16 -60 14 -127 -9
-229 -64 -290 34 -558 259 -710 130 -88 227 -116 390 -115 79 0 111 6 188 32
91 31 118 33 158 11 12 -6 70 -96 130 -201 104 -182 132 -230 177 -308 11 -19
30 -52 41 -72 12 -20 42 -73 69 -117 26 -44 47 -85 47 -91 0 -5 5 -10 10 -10
6 0 10 -4 10 -9 0 -8 186 -334 336 -586 32 -55 59 -102 59 -105 0 -3 7 -16 14
-29 22 -40 22 -92 -1 -166 -12 -38 -23 -72 -23 -75 -1 -3 -4 -12 -8 -20 -7
-17 -401 -1213 -402 -1220 0 -3 -9 -30 -20 -60 -10 -30 -20 -59 -21 -65 -1 -5
-28 -86 -59 -180 -31 -93 -58 -174 -59 -180 -1 -5 -26 -82 -56 -170 -30 -88
-55 -162 -55 -165 -1 -3 -32 -99 -70 -215 -38 -116 -70 -212 -71 -215 0 -3 -3
-12 -7 -20 -3 -8 -29 -87 -57 -175 -28 -88 -54 -167 -57 -175 -3 -8 -7 -19 -9
-25 -1 -5 -10 -30 -19 -55 -15 -42 -25 -78 -29 -107 0 -6 3 -13 8 -15 10 -3
56 77 56 99 0 7 5 13 10 13 6 0 10 5 10 12 0 6 26 63 57 127 32 64 58 118 58
121 1 3 34 73 74 155 40 83 88 182 106 220 18 39 70 147 115 240 45 94 82 171
81 172 0 1 31 66 70 143 38 77 69 142 69 144 0 6 217 454 241 498 11 21 19 39
19 40 -1 3 55 120 207 438 26 52 65 134 88 183 31 64 45 84 52 75 6 -7 38 -69
72 -138 34 -69 67 -133 72 -143 6 -11 88 -173 183 -360 302 -596 538 -1061
546 -1077 5 -8 52 -102 105 -208 53 -106 105 -209 116 -228 10 -19 19 -41 19
-48 0 -8 3 -16 8 -18 4 -2 58 -104 121 -228 116 -231 126 -248 137 -237 7 6
-38 153 -77 252 -10 25 -58 162 -99 280 -17 50 -33 97 -37 105 -3 8 -7 20 -8
25 -3 11 -105 299 -135 380 -10 28 -48 136 -85 240 -84 238 -120 342 -150 425
-13 36 -53 151 -90 255 -36 105 -74 210 -83 235 -9 25 -17 47 -17 50 0 3 -5
19 -12 35 -22 59 -26 70 -28 78 -2 4 -4 9 -5 12 -1 3 -3 8 -5 13 -1 4 -4 14
-8 22 -3 8 -13 35 -21 60 -8 25 -38 110 -66 190 -48 134 -151 426 -186 529
-18 50 -14 114 9 139 9 9 20 28 26 42 6 14 17 34 23 45 17 26 55 89 77 128 52
91 395 683 398 686 4 6 66 -25 148 -74 33 -19 81 -46 107 -60 26 -13 49 -29
53 -35 4 -6 10 -8 15 -5 4 3 13 -2 20 -10 7 -8 19 -15 26 -15 8 0 14 -4 14 -8
0 -4 12 -13 28 -19 28 -12 103 -54 112 -63 3 -3 19 -12 35 -22 135 -74 152
-77 182 -32 34 53 18 87 -65 129 -21 11 -45 26 -54 34 -10 8 -18 11 -18 8 0
-3 -39 18 -88 47 -48 29 -165 96 -259 151 -95 54 -173 102 -173 107 0 17 65
128 75 128 6 0 30 -12 55 -26 25 -14 68 -39 95 -54 167 -94 352 -201 362 -210
7 -5 14 -10 17 -10 2 0 32 -16 66 -35 34 -19 72 -37 85 -39 44 -8 90 70 62
106 -12 15 -96 67 -237 145 -129 72 -396 227 -400 233 -3 4 -13 9 -23 13 -19
7 -19 5 49 114 l14 22 69 -39 c93 -53 138 -78 186 -105 22 -13 123 -71 224
-129 102 -58 190 -106 197 -106 39 0 83 81 60 111 -9 13 -120 79 -281 169 -22
12 -44 26 -50 30 -5 4 -35 21 -65 37 -30 17 -71 40 -90 51 -19 12 -46 27 -60
34 -14 7 -27 15 -30 18 -3 3 -22 14 -43 25 -21 11 -40 23 -42 26 -3 3 12 33
32 67 l36 62 31 -19 c17 -10 58 -33 91 -51 33 -18 65 -36 70 -40 6 -4 30 -19
55 -32 25 -14 132 -75 238 -136 125 -71 200 -109 210 -105 22 8 50 40 58 65 8
27 -18 62 -68 88 -53 27 -29 13 -350 198 l-266 154 35 59 c35 58 35 58 62 45
14 -8 145 -83 291 -167 395 -227 377 -220 416 -161 42 62 29 74 -246 225 -30
17 -86 49 -125 72 -38 22 -77 44 -85 48 -8 4 -24 13 -35 20 -11 7 -54 32 -96
56 l-77 44 30 51 c16 28 34 55 38 60 5 5 30 -4 57 -21 26 -16 55 -32 63 -36 8
-4 38 -21 65 -37 28 -17 59 -35 70 -41 11 -5 29 -15 40 -22 191 -113 370 -209
391 -209 32 0 63 36 64 73 0 31 -26 55 -100 94 -30 15 -67 36 -82 47 -14 10
-29 18 -32 18 -3 0 -51 27 -107 60 -55 33 -103 60 -105 60 -2 0 -28 16 -58 35
-30 19 -57 35 -60 35 -14 0 -126 74 -126 84 0 6 11 28 25 48 14 20 25 41 25
47 0 21 20 20 62 -3 24 -13 173 -99 333 -190 159 -91 299 -166 310 -166 12 0
32 10 44 21 18 17 22 28 17 53 -4 17 -14 38 -24 48 -23 22 -281 172 -407 237
-245 125 -270 141 -262 173 12 44 -2 63 -76 101 -40 21 -80 37 -90 37 -46 0
-47 -2 -346 -525 -50 -88 -96 -167 -102 -175 -5 -8 -15 -27 -22 -42 -6 -16
-15 -28 -19 -28 -4 0 -8 -5 -8 -10 0 -6 -18 -40 -40 -76 -22 -36 -40 -67 -40
-69 0 -3 -107 -188 -130 -225 -5 -8 -31 -53 -58 -100 -27 -47 -118 -204 -202
-350 -85 -146 -160 -276 -167 -290 -8 -14 -23 -38 -33 -55 -22 -35 -69 -120
-84 -152 -6 -13 -14 -23 -18 -23 -5 0 -8 -4 -8 -10 0 -5 -24 -49 -53 -97 -28
-48 -63 -109 -77 -135 -14 -27 -28 -48 -32 -48 -5 0 -8 -5 -8 -11 0 -6 -17
-39 -37 -73 -21 -33 -37 -64 -35 -68 1 -5 -2 -8 -7 -8 -5 0 -13 -10 -17 -22
-7 -23 -32 -53 -38 -47 -2 2 -18 31 -36 64 -19 33 -40 68 -48 78 -8 9 -12 17
-9 17 4 0 -13 32 -38 70 -25 39 -45 77 -45 84 0 8 -4 16 -8 18 -7 3 -27 35
-79 128 -11 19 -41 70 -67 113 -25 43 -46 80 -46 82 0 2 -34 60 -75 130 -41
69 -75 131 -75 136 0 5 -5 9 -12 9 -6 0 -8 3 -5 7 4 3 1 13 -7 22 -7 9 -27 41
-43 71 -17 30 -53 95 -82 143 -28 49 -51 93 -51 98 0 5 -4 9 -10 9 -5 0 -10 4
-10 9 0 5 -41 80 -91 167 -50 88 -99 173 -109 189 -22 39 -19 67 19 162 91
228 68 449 -65 643 -91 133 -263 248 -403 268 -57 9 -184 8 -231 0 -74 -13
-261 -84 -344 -129 -15 -9 -32 4 -115 88 -106 110 -179 168 -259 208 -61 31
-145 41 -182 22z m1140 -442 c277 -112 363 -449 170 -668 -42 -47 -130 -115
-130 -100 0 4 -4 3 -8 -3 -20 -31 -187 -49 -276 -29 -137 29 -265 159 -306
308 -16 61 -8 186 16 247 47 119 147 211 272 250 72 23 197 21 262 -5z m1462
-2642 c27 -29 31 -40 29 -84 -1 -32 -42 -75 -76 -82 -34 -6 -101 29 -109 56
-13 48 -6 79 23 108 40 40 96 41 133 2z"/>
</g>
</svg>
