<svg width="124" height="128" viewBox="0 0 124 128" fill="none" xmlns="http://www.w3.org/2000/svg">
<path d="M62 2C27.7583 2 0 29.7583 0 64C0 98.2417 27.7583 126 62 126C96.2417 126 124 98.2417 124 64C124 29.7583 96.2417 2 62 2ZM90.738 44.165C89.805 53.9688 85.7677 77.7595 83.713 88.74C82.844 93.386 81.1325 94.944 79.476 95.0963C75.876 95.4277 73.1415 92.717 69.6543 90.431C64.1975 86.854 61.1147 84.6273 55.8177 81.1367C49.6965 77.103 53.6648 74.8867 57.1533 71.2617C58.0662 70.3135 73.93 55.8842 74.237 54.5752C74.2753 54.4115 74.312 53.8003 73.9485 53.4793C73.585 53.1583 73.051 53.267 72.6647 53.3543C72.1176 53.4786 63.4002 59.2404 46.5127 70.6397C44.0386 72.3387 41.7974 73.1666 39.7892 73.1233C37.5755 73.0755 33.3172 71.8717 30.1515 70.8425C26.2688 69.5805 23.1828 68.9133 23.4515 66.7698C23.5915 65.6531 25.129 64.5114 28.064 63.3447C46.1383 55.4701 58.1907 50.2784 64.221 47.7697C81.439 40.608 85.0167 39.364 87.3487 39.3225C87.8617 39.314 89.0085 39.441 89.7513 40.0438C90.2453 40.4731 90.5603 41.0723 90.6338 41.7228C90.7596 42.5304 90.7946 43.3496 90.738 44.165Z" fill="white"/>
</svg>
