<svg width="48" height="40" viewBox="0 0 48 40" fill="none" xmlns="http://www.w3.org/2000/svg">
<path d="M47.3398 28.2925L35.9114 39.7209C35.8229 39.8094 35.7179 39.8796 35.6023 39.9275C35.4867 39.9753 35.3628 40 35.2376 40C35.1125 40 34.9886 39.9753 34.873 39.9275C34.7574 39.8796 34.6523 39.8094 34.5638 39.7209C34.4753 39.6324 34.4052 39.5274 34.3573 39.4118C34.3094 39.2962 34.2847 39.1722 34.2847 39.0471C34.2847 38.922 34.3094 38.7981 34.3573 38.6824C34.4052 38.5668 34.4753 38.4618 34.5638 38.3733L44.3661 28.571H14.2855C10.4968 28.571 6.86319 27.066 4.18413 24.3869C1.50508 21.7079 0 18.0743 0 14.2855C0 10.4968 1.50508 6.86319 4.18413 4.18413C6.86319 1.50508 10.4968 0 14.2855 0H35.2376C35.4902 0 35.7325 0.100339 35.9111 0.278942C36.0897 0.457546 36.19 0.699785 36.19 0.952368C36.19 1.20495 36.0897 1.44719 35.9111 1.62579C35.7325 1.8044 35.4902 1.90474 35.2376 1.90474H14.2855C11.0019 1.90474 7.85283 3.20914 5.53099 5.53099C3.20914 7.85283 1.90474 11.0019 1.90474 14.2855C1.90474 17.5691 3.20914 20.7182 5.53099 23.0401C7.85283 25.3619 11.0019 26.6663 14.2855 26.6663H44.3661L34.5638 16.8641C34.3851 16.6854 34.2847 16.443 34.2847 16.1903C34.2847 15.9375 34.3851 15.6952 34.5638 15.5165C34.7425 15.3378 34.9849 15.2374 35.2376 15.2374C35.4904 15.2374 35.7327 15.3378 35.9114 15.5165L47.3398 26.9449C47.4284 27.0333 47.4986 27.1384 47.5466 27.254C47.5945 27.3696 47.6192 27.4935 47.6192 27.6187C47.6192 27.7438 47.5945 27.8678 47.5466 27.9834C47.4986 28.099 47.4284 28.204 47.3398 28.2925Z" fill="#D9D9D9"/>
</svg>
