<svg width="128" height="128" viewBox="0 0 128 128" fill="none" xmlns="http://www.w3.org/2000/svg">
<path d="M115.94 87.54C115.049 94.3151 111.721 100.534 106.58 105.035C101.438 109.537 94.8336 112.012 88 112C48.3 112 16 79.7 16 40C15.9878 33.1664 18.4635 26.5621 22.9647 21.4204C27.4659 16.2788 33.6849 12.9515 40.46 12.06C42.1733 11.8508 43.9083 12.2013 45.406 13.0592C46.9037 13.917 48.0837 15.2363 48.77 16.82L59.33 40.395V40.455C59.8555 41.6672 60.0725 42.9908 59.9617 44.3073C59.8509 45.6239 59.4157 46.8926 58.695 48C58.605 48.135 58.51 48.26 58.41 48.385L48 60.725C51.745 68.335 59.705 76.225 67.415 79.98L79.585 69.625C79.7046 69.5245 79.8298 69.431 79.96 69.345C81.0665 68.607 82.3395 68.1565 83.6639 68.0343C84.9883 67.9121 86.3222 68.1219 87.545 68.645L87.61 68.675L111.165 79.23C112.752 79.9138 114.074 81.0929 114.935 82.5908C115.795 84.0887 116.148 85.825 115.94 87.54Z" fill="white"/>
</svg>
