<svg width="48" height="40" viewBox="0 0 48 40" fill="none" xmlns="http://www.w3.org/2000/svg">
<path d="M0.660152 28.2925L12.0886 39.7209C12.1771 39.8094 12.2821 39.8796 12.3977 39.9275C12.5133 39.9753 12.6372 40 12.7624 40C12.8875 40 13.0114 39.9753 13.127 39.9275C13.2426 39.8796 13.3477 39.8094 13.4362 39.7209C13.5247 39.6324 13.5948 39.5274 13.6427 39.4118C13.6906 39.2962 13.7153 39.1722 13.7153 39.0471C13.7153 38.922 13.6906 38.7981 13.6427 38.6824C13.5948 38.5668 13.5247 38.4618 13.4362 38.3733L3.63392 28.571H33.7145C37.5032 28.571 41.1368 27.066 43.8159 24.3869C46.4949 21.7079 48 18.0743 48 14.2855C48 10.4968 46.4949 6.86319 43.8159 4.18413C41.1368 1.50508 37.5032 0 33.7145 0H12.7624C12.5098 0 12.2675 0.100339 12.0889 0.278942C11.9103 0.457546 11.81 0.699785 11.81 0.952368C11.81 1.20495 11.9103 1.44719 12.0889 1.62579C12.2675 1.8044 12.5098 1.90474 12.7624 1.90474H33.7145C36.9981 1.90474 40.1472 3.20914 42.469 5.53099C44.7909 7.85283 46.0953 11.0019 46.0953 14.2855C46.0953 17.5691 44.7909 20.7182 42.469 23.0401C40.1472 25.3619 36.9981 26.6663 33.7145 26.6663H3.63392L13.4362 16.8641C13.6149 16.6854 13.7153 16.443 13.7153 16.1903C13.7153 15.9375 13.6149 15.6952 13.4362 15.5165C13.2575 15.3378 13.0151 15.2374 12.7624 15.2374C12.5096 15.2374 12.2673 15.3378 12.0886 15.5165L0.660152 26.9449C0.571602 27.0333 0.501358 27.1384 0.45343 27.254C0.405502 27.3696 0.380836 27.4935 0.380836 27.6187C0.380836 27.7438 0.405502 27.8678 0.45343 27.9834C0.501358 28.099 0.571602 28.204 0.660152 28.2925Z" fill="#D9D9D9"/>
</svg>
